<svg fill="white" xmlns="http://www.w3.org/2000/svg" xmlns:xlink="http://www.w3.org/1999/xlink" xmlns:serif="http://www.serif.com/" viewBox="0 0 24 30" version="1.1" xml:space="preserve" style="" x="0px" y="0px" fill-rule="evenodd" clip-rule="evenodd" stroke-linejoin="round" stroke-miterlimit="2"><g><path d="M7.25,17c0,-0.414 0.336,-0.75 0.75,-0.75c0.414,0 0.75,0.336 0.75,0.75l-0,3c-0,0.332 0.132,0.649 0.366,0.884c0.235,0.234 0.552,0.366 0.884,0.366l8.5,0c0.332,0 0.649,-0.132 0.884,-0.366c0.234,-0.235 0.366,-0.552 0.366,-0.884l0,-16c0,-0.332 -0.132,-0.649 -0.366,-0.884c-0.235,-0.234 -0.552,-0.366 -0.884,-0.366l-8.5,-0c-0.332,-0 -0.649,0.132 -0.884,0.366c-0.234,0.235 -0.366,0.552 -0.366,0.884l-0,3c0,0.414 -0.336,0.75 -0.75,0.75c-0.414,0 -0.75,-0.336 -0.75,-0.75l-0,-3c-0,-0.729 0.29,-1.429 0.805,-1.945c0.516,-0.515 1.216,-0.805 1.945,-0.805l8.5,-0c0.729,-0 1.429,0.29 1.945,0.805c0.515,0.516 0.805,1.216 0.805,1.945l-0,16c0,0.729 -0.29,1.429 -0.805,1.945c-0.516,0.515 -1.216,0.805 -1.945,0.805l-8.5,-0c-0.729,0 -1.429,-0.29 -1.945,-0.805c-0.515,-0.516 -0.805,-1.216 -0.805,-1.945l-0,-3Z"/><path d="M3.5,12.75c-0.414,0 -0.75,-0.336 -0.75,-0.75c-0,-0.414 0.336,-0.75 0.75,-0.75l10.5,0c0.414,0 0.75,0.336 0.75,0.75c-0,0.414 -0.336,0.75 -0.75,0.75l-10.5,0Z"/><path d="M10.47,9.03c-0.293,-0.292 -0.293,-0.768 -0,-1.06c0.292,-0.293 0.768,-0.293 1.06,-0l3.5,3.5c0.293,0.293 0.293,0.767 0,1.06l-3.5,3.5c-0.292,0.293 -0.768,0.293 -1.06,0c-0.293,-0.292 -0.293,-0.768 -0,-1.06c-0,-0 2.969,-2.97 2.969,-2.97l-2.969,-2.97Z"/></g><text x="0" y="39" fill="#000000" font-size="5px" font-weight="bold" font-family="'Helvetica Neue', Helvetica, Arial-Unicode, Arial, Sans-serif">Created by Rolas Design</text><text x="0" y="44" fill="#000000" font-size="5px" font-weight="bold" font-family="'Helvetica Neue', Helvetica, Arial-Unicode, Arial, Sans-serif">from the Noun Project</text></svg>